<svg id="Capa_1" data-name="Capa 1" xmlns="http://www.w3.org/2000/svg" viewBox="0 0 150 150"><defs><style>.cls-1{fill:#c88138;}</style></defs><path class="cls-1" d="M45.1,77.74A14.27,14.27,0,1,0,59.18,92,14.19,14.19,0,0,0,45.1,77.74Zm0,25.11A10.84,10.84,0,1,1,55.75,92,10.76,10.76,0,0,1,45.1,102.85Z"/><path class="cls-1" d="M117.25,43.9a16.5,16.5,0,1,0,16.27,16.5A16.41,16.41,0,0,0,117.25,43.9Zm0,29.57A13.07,13.07,0,1,1,130.09,60.4,13,13,0,0,1,117.25,73.47Z"/><path class="cls-1" d="M91.14,69.94a8.08,8.08,0,1,0,8,8.08A8,8,0,0,0,91.14,69.94Zm0,12.73A4.65,4.65,0,1,1,95.69,78,4.62,4.62,0,0,1,91.14,82.67Z"/><path class="cls-1" d="M123.83,111.29h-4.74a13.94,13.94,0,0,0,2.2-7.59A11.26,11.26,0,0,0,109.65,92a15.47,15.47,0,0,0-2,.14A118.09,118.09,0,0,1,93.07,93a118.37,118.37,0,0,1-14.57-.91,15.36,15.36,0,0,0-2-.14,13,13,0,0,0-2.75.29V69.86A19.26,19.26,0,0,0,71,59.94a1.72,1.72,0,0,0-2.94,1.77,15.62,15.62,0,0,1,2.15,6.43H20A15.49,15.49,0,0,1,35.28,54.22H54.92a15.25,15.25,0,0,1,7.36,1.9,1.71,1.71,0,1,0,1.66-3,18.47,18.47,0,0,0-7.12-2.23V41.58A2.86,2.86,0,0,0,54,38.73H50.31V31.5H54a2.86,2.86,0,0,0,2.86-2.85V25.42H67v5.67a1.72,1.72,0,0,0,3.43,0V24.85A2.86,2.86,0,0,0,67.6,22H56.82v-.52A2.87,2.87,0,0,0,54,18.61H36.24a2.86,2.86,0,0,0-2.85,2.86v7.18a2.86,2.86,0,0,0,2.85,2.85h3.65v7.23H36.24a2.86,2.86,0,0,0-2.85,2.85v9.31a19,19,0,0,0-16.91,19v58.67a2.86,2.86,0,0,0,2.85,2.86h96.5a3.41,3.41,0,0,0,3.13-2.26l2.36-7h2.51a2.86,2.86,0,0,0,2.85-2.85v-5.1A2.86,2.86,0,0,0,123.83,111.29Zm-87-83.22V22H53.39v6ZM46.88,31.5v7.23H43.32V31.5ZM36.82,42.16H53.39v8.63H36.82ZM19.91,128v-5.8H30.19a1.72,1.72,0,1,0,0-3.43H19.91V71.57H70.3v22a10.9,10.9,0,0,0-2.1,1.6,11.68,11.68,0,0,0-3.36,8.53,13.87,13.87,0,0,0,2.21,7.59H62.31a2.86,2.86,0,0,0-2.86,2.86v4.58H39.8a1.72,1.72,0,1,0,0,3.43h25l1.94,5.8Zm95.83,0H70.39l-2-5.86H117.7Zm7.51-9.29H62.88v-4H97.4a1.72,1.72,0,1,0,0-3.43H71.47l-.2-.19a10.37,10.37,0,0,1-3-7.4c0-5,3.31-8.32,8.21-8.32a11.93,11.93,0,0,1,1.56.11h0a123.15,123.15,0,0,0,15,.93,123.4,123.4,0,0,0,15-.93h0a11.78,11.78,0,0,1,1.55-.11c4.91,0,8.21,3.35,8.21,8.32a10.36,10.36,0,0,1-3,7.4l-.2.19h-7.44a1.72,1.72,0,0,0,0,3.43h16v4Z"/></svg>