<svg id="Capa_1" data-name="Capa 1" xmlns="http://www.w3.org/2000/svg" xmlns:xlink="http://www.w3.org/1999/xlink" viewBox="0 0 150 150"><defs><style>.cls-1,.cls-2,.cls-4{fill:#c88138;}.cls-1{clip-rule:evenodd;}.cls-2{fill-rule:evenodd;}.cls-3{clip-path:url(#clip-path);}.cls-5{clip-path:url(#clip-path-2);}.cls-6{clip-path:url(#clip-path-3);}</style><clipPath id="clip-path"><path class="cls-1" d="M53,108.81a9.35,9.35,0,0,0,2.18-6.73A11.91,11.91,0,0,0,43,89.89a9.28,9.28,0,0,0-6.72,2.19l-6.24-6.25L61.92,53.9l4.45,4.46,1.91-1.92L63.83,52l17-17,6.24,6.25a9.35,9.35,0,0,0-2.18,6.73A11.9,11.9,0,0,0,97.06,60.11a9.31,9.31,0,0,0,6.72-2.19L110,64.17l-17,17-4.45-4.46-1.91,1.92,4.45,4.45L59.22,115.06Zm50.82-54.68-1,1a6.86,6.86,0,0,1-5.8,2.31,9.16,9.16,0,0,1-9.46-9.48,6.87,6.87,0,0,1,2.31-5.81l1-1-10-10L26.23,85.83l10,10,1-1A6.85,6.85,0,0,1,43,92.6a9.16,9.16,0,0,1,9.46,9.48,6.87,6.87,0,0,1-2.31,5.81l-1,1,10,10,54.61-54.72Z"/></clipPath><clipPath id="clip-path-2"><polygon class="cls-1" points="74.48 66.48 69.08 61.06 70.99 59.15 76.39 64.57 74.48 66.48"/></clipPath><clipPath id="clip-path-3"><polygon class="cls-1" points="83.94 75.96 78.53 70.54 80.45 68.63 85.85 74.04 83.94 75.96"/></clipPath></defs><path class="cls-2" d="M53,108.81a9.35,9.35,0,0,0,2.18-6.73A11.91,11.91,0,0,0,43,89.89a9.28,9.28,0,0,0-6.72,2.19l-6.24-6.25L61.92,53.9l4.45,4.46,1.91-1.92L63.83,52l17-17,6.24,6.25a9.35,9.35,0,0,0-2.18,6.73A11.9,11.9,0,0,0,97.06,60.11a9.31,9.31,0,0,0,6.72-2.19L110,64.17l-17,17-4.45-4.46-1.91,1.92,4.45,4.45L59.22,115.06Zm50.82-54.68-1,1a6.86,6.86,0,0,1-5.8,2.31,9.16,9.16,0,0,1-9.46-9.48,6.87,6.87,0,0,1,2.31-5.81l1-1-10-10L26.23,85.83l10,10,1-1A6.85,6.85,0,0,1,43,92.6a9.16,9.16,0,0,1,9.46,9.48,6.87,6.87,0,0,1-2.31,5.81l-1,1,10,10,54.61-54.72Z"/><g class="cls-3"><rect class="cls-4" x="24.81" y="29.69" width="90.44" height="90.62"/></g><polygon class="cls-2" points="74.48 66.48 69.08 61.06 70.99 59.15 76.39 64.57 74.48 66.48"/><g class="cls-5"><rect class="cls-4" x="67.66" y="57.73" width="10.16" height="10.17"/></g><polygon class="cls-2" points="83.94 75.96 78.53 70.54 80.45 68.63 85.85 74.04 83.94 75.96"/><g class="cls-6"><rect class="cls-4" x="77.11" y="67.21" width="10.16" height="10.17"/></g></svg>