<svg id="Capa_1" data-name="Capa 1" xmlns="http://www.w3.org/2000/svg" viewBox="0 0 150 150"><defs><style>.cls-1{fill:#c78036;}.cls-2{fill:none;stroke:#c88138;stroke-miterlimit:10;stroke-width:2px;}.cls-3{fill:#c88138;}</style></defs><path class="cls-1" d="M75,56.58A11.82,11.82,0,1,0,86.79,68.4,11.83,11.83,0,0,0,75,56.58Zm8.34,12.8a1.49,1.49,0,1,0-.93,2.84l.47.15a8.57,8.57,0,0,1-1.45,2.07l-.26-.35a1.5,1.5,0,1,0-2.42,1.76l.29.39a8.58,8.58,0,0,1-2.39.83v-.44a1.5,1.5,0,1,0-3,0v.49a8.61,8.61,0,0,1-2.42-.74l.26-.36a1.5,1.5,0,1,0-2.42-1.76l-.29.4a8.64,8.64,0,0,1-1.52-2l.42-.13a1.5,1.5,0,1,0-.93-2.85l-.47.15a9.36,9.36,0,0,1-.11-1.41,8.07,8.07,0,0,1,.07-1.11l.42.13a1.48,1.48,0,0,0,.46.08,1.52,1.52,0,0,0,1.43-1,1.5,1.5,0,0,0-1-1.88l-.47-.16a8.71,8.71,0,0,1,1.45-2.06l.26.35a1.5,1.5,0,0,0,1.21.62A1.54,1.54,0,0,0,70.9,63,1.5,1.5,0,0,0,71.23,61l-.29-.4a8.77,8.77,0,0,1,2.39-.82v.44a1.5,1.5,0,1,0,3,0v-.49a8.71,8.71,0,0,1,2.42.74l-.26.36a1.49,1.49,0,0,0,1.21,2.37,1.48,1.48,0,0,0,1.21-.62l.29-.39a8.64,8.64,0,0,1,1.52,2l-.42.13a1.5,1.5,0,0,0,.46,2.92,1.43,1.43,0,0,0,.46-.07l.47-.16a8.42,8.42,0,0,1,.12,1.42,10,10,0,0,1-.07,1.11Z"/><path class="cls-1" d="M75,63a5.39,5.39,0,1,0,5.39,5.39A5.39,5.39,0,0,0,75,63Zm0,7.78a2.39,2.39,0,1,1,2.4-2.39A2.39,2.39,0,0,1,75,70.79Z"/><path class="cls-1" d="M82.18,94.17H80.55a1.63,1.63,0,0,0,0,3.25h1.63a1.63,1.63,0,1,0,0-3.25Z"/><path class="cls-1" d="M74.7,94.17H56.15a1.63,1.63,0,1,0,0,3.25H74.7a1.63,1.63,0,0,0,0-3.25Z"/><rect class="cls-2" x="48.62" y="36.77" width="52.59" height="65.51" rx="2"/><path class="cls-3" d="M107.87,25.53H42.13a4.88,4.88,0,0,0-4.93,4.82v83.59a1.62,1.62,0,0,0,1.64,1.6h72.32a1.62,1.62,0,0,0,1.64-1.6V30.35A4.88,4.88,0,0,0,107.87,25.53Zm1.64,9.65v77.15h-69v-82a1.63,1.63,0,0,1,1.64-1.6h65.74a1.62,1.62,0,0,1,1.64,1.6h0Z"/><path class="cls-1" d="M48.46,118.15v-3.07H45v7.43a2,2,0,0,0,1,1.79,1.69,1.69,0,0,0,.72.17,1.64,1.64,0,0,0,1.15-.49l8.91-8.9H93.22l8.91,8.9a1.64,1.64,0,0,0,1.15.49,1.69,1.69,0,0,0,.72-.17,2,2,0,0,0,1-1.79v-7.43H51.53Zm53.08-3.07v3.07l-3.07-3.07Z"/></svg>