<svg id="Capa_1" data-name="Capa 1" xmlns="http://www.w3.org/2000/svg" viewBox="0 0 150 150"><defs><style>.cls-1{fill:#c88138;}</style></defs><path class="cls-1" d="M84.34,63.05a1.4,1.4,0,0,0-.16-.38,1.5,1.5,0,0,0-2.45-.15.74.74,0,0,0-.17.4,40.88,40.88,0,0,0,0,6.26.76.76,0,0,0,.19.42,1.48,1.48,0,0,0,2.23.07,1.31,1.31,0,0,0,.35-.58,12.15,12.15,0,0,0,.07-3h0A13.8,13.8,0,0,0,84.34,63.05Z"/><path class="cls-1" d="M92.24,108.53a.88.88,0,0,0,.39.14,35.16,35.16,0,0,0,6.07,0,.76.76,0,0,0,.4-.18A1.56,1.56,0,0,0,99,106a1.12,1.12,0,0,0-.37-.17,11.57,11.57,0,0,0-2.83-.07,11.68,11.68,0,0,0-3,.07,1.46,1.46,0,0,0-.56.3A1.49,1.49,0,0,0,92.24,108.53Z"/><path class="cls-1" d="M52.59,108.52a.8.8,0,0,0,.38.14,35.27,35.27,0,0,0,6.08,0,.73.73,0,0,0,.39-.18,1.56,1.56,0,0,0-.13-2.52,1.46,1.46,0,0,0-.38-.18,11,11,0,0,0-2.82-.06,12.22,12.22,0,0,0-3,.06,1.9,1.9,0,0,0-.56.3A1.51,1.51,0,0,0,52.59,108.52Z"/><path class="cls-1" d="M116.14,75.4V58.09h0V27.89c0-3.86-.77-4.62-4.63-4.62h-72c-5.23,0-5.59.36-5.6,5.68q0,12,0,23.93h0V85.16h0q0,14.58,0,29.15c0,3,1,3.88,3.89,3.9,1.8,0,3.6,0,5.64,0v6.25h3.06v-6a5.54,5.54,0,0,1,.85-.2q27.39,0,54.78,0c1.19,0,1.54.48,1.5,1.57-.06,1.58,0,3.16,0,4.66h3.09v-6.21h4.79c3.93,0,4.65-.71,4.65-4.58v-26h0ZM37,26.48H75V39H37Zm19.94,23c2.54,1.64,5,3.34,8.1,5.37H47.62l-.14-.35c2.67-1.78,5.31-3.58,8-5.29A1.76,1.76,0,0,1,56.92,49.45Zm18,65.72H37V99.36H75Zm.06-19c-.74,0-1.39.1-2,.1-11.3,0-22.59,0-33.88,0-1.76,0-2.34-.42-2.29-2.24q.14-4.44.11-8.88V52.88h-.14V42.33H54.12c.84,3,.63,3.64-1.85,5.3-3.54,2.36-7.12,4.68-10.6,7.12l-.12.09a1.79,1.79,0,0,0,.87,3.09,1.09,1.09,0,0,0,.26,0q13.29.1,26.58,0h.15a1.8,1.8,0,0,0,1.11-3,2.5,2.5,0,0,0-.38-.35c-3.31-2.34-6.62-4.71-10.13-6.72-2.36-1.35-2.95-3-2.32-5.62H75Zm38.09,19H78.23V99.33H113.1Zm.09-20.62c0,1.06-.08,1.79-1.48,1.78-10.89,0-21.77,0-32.65,0a5.87,5.87,0,0,1-1-.21V26.44h35.07v2.44q0,14.61,0,29.21h0V71.31c0,1.32-.08,2.64,0,3.94V87.62h0C113.17,89.91,113.17,92.19,113.19,94.48Z"/></svg>