<svg id="Capa_1" data-name="Capa 1" xmlns="http://www.w3.org/2000/svg" viewBox="0 0 150 150"><defs><style>.cls-1{fill:#c88138;}</style></defs><path class="cls-1" d="M111.76,60.29h-14a23.67,23.67,0,0,0,6.66-16.54,1.84,1.84,0,0,0-1.84-1.84H89.71V38.24a1.84,1.84,0,0,0-1.84-1.84H80.51a1.83,1.83,0,0,0-1.83,1.84v3.67H76.84V29.05a5.52,5.52,0,1,1,11,0,1.84,1.84,0,0,0,3.67,0,9.19,9.19,0,1,0-18.38,0V41.91H71.32V38.24a1.83,1.83,0,0,0-1.83-1.84H62.13a1.84,1.84,0,0,0-1.84,1.84v3.67H47.43a1.84,1.84,0,0,0-1.84,1.84,23.74,23.74,0,0,0,6.69,16.54h-14a1.84,1.84,0,0,0-1.84,1.84v47.8a1.83,1.83,0,0,0,1.84,1.83h1.83v16.55a1.85,1.85,0,0,0,1.84,1.84h5.52a1.84,1.84,0,0,0,1.81-1.54l1.33-8a1.84,1.84,0,0,1,1.81-1.53H97.62a1.84,1.84,0,0,1,1.81,1.53l1.33,8a1.84,1.84,0,0,0,1.81,1.54h5.52a1.85,1.85,0,0,0,1.84-1.84V111.76h1.83a1.83,1.83,0,0,0,1.84-1.83V62.13A1.84,1.84,0,0,0,111.76,60.29ZM82.35,40.07H86v1.84H82.35ZM64,40.07h3.68v1.84H64ZM49.35,45.59h51.3a20.12,20.12,0,0,1-8.49,14.7H57.86A20.07,20.07,0,0,1,49.35,45.59Zm-9.28,62.5V64H73.16v44.12Zm66.18,18.38h-2.12l-1.07-6.42a5.5,5.5,0,0,0-5.44-4.61H52.38a5.5,5.5,0,0,0-5.44,4.61l-1.07,6.42H43.75V111.76h62.5Zm3.68-18.38H76.84V64h33.09Z"/><path class="cls-1" d="M80.51,91.54a1.83,1.83,0,0,0,1.84-1.83V82.35a1.84,1.84,0,1,0-3.67,0v7.36A1.83,1.83,0,0,0,80.51,91.54Z"/><path class="cls-1" d="M69.49,80.51a1.84,1.84,0,0,0-1.84,1.84v7.36a1.84,1.84,0,0,0,3.67,0V82.35A1.84,1.84,0,0,0,69.49,80.51Z"/></svg>