<svg id="Capa_1" data-name="Capa 1" xmlns="http://www.w3.org/2000/svg" viewBox="0 0 150 150"><defs><style>.cls-1{fill:#c88138;}</style></defs><path class="cls-1" d="M112,19.48H38A5.56,5.56,0,0,0,32.44,25v96.23a1.85,1.85,0,0,0,1.85,1.85v3.71a3.7,3.7,0,0,0,3.7,3.7h7.4a3.7,3.7,0,0,0,3.7-3.7v-3.71h51.82v3.71a3.7,3.7,0,0,0,3.7,3.7H112a3.7,3.7,0,0,0,3.7-3.7v-3.71a1.84,1.84,0,0,0,1.85-1.85V25A5.56,5.56,0,0,0,112,19.48Zm1.85,99.93H36.14v-3.7h77.72ZM36.14,112V30.59H79.79l5.77,5.77A5.51,5.51,0,0,0,89.49,38h24.37v74ZM85,30.59h28.84v3.7H89.49a1.87,1.87,0,0,1-1.31-.54ZM38,23.18h74A1.85,1.85,0,0,1,113.86,25v1.85H36.14V25A1.85,1.85,0,0,1,38,23.18Zm7.4,103.64H38v-3.71h7.4v3.71Zm66.62,0h-7.4v-3.71H112Z"/><path class="cls-1" d="M41.69,34.29a1.85,1.85,0,0,0-1.85,1.85V38a1.85,1.85,0,0,0,3.7,0V36.14A1.85,1.85,0,0,0,41.69,34.29Z"/><path class="cls-1" d="M49.09,34.29a1.85,1.85,0,0,0-1.85,1.85V38a1.85,1.85,0,1,0,3.7,0V36.14A1.85,1.85,0,0,0,49.09,34.29Z"/></svg>