<svg id="Capa_1" data-name="Capa 1" xmlns="http://www.w3.org/2000/svg" xmlns:xlink="http://www.w3.org/1999/xlink" viewBox="0 0 150 150"><defs><style>.cls-1,.cls-2,.cls-3{fill:#c88138;}.cls-1{clip-rule:evenodd;}.cls-3{fill-rule:evenodd;}.cls-4{clip-path:url(#clip-path);}.cls-5{clip-path:url(#clip-path-2);}.cls-6{clip-path:url(#clip-path-3);}.cls-7{clip-path:url(#clip-path-4);}.cls-8{clip-path:url(#clip-path-5);}.cls-9{clip-path:url(#clip-path-6);}.cls-10{clip-path:url(#clip-path-7);}</style><clipPath id="clip-path"><path class="cls-1" d="M110.22,95.71H32.43a4.44,4.44,0,0,1,0-8.88H60.09l10.53,5.74a1.47,1.47,0,0,0,1.41,0l10.53-5.74h27.66a4.44,4.44,0,0,1,0,8.88Zm0-11.84H88l5.43-3h16.81a1.48,1.48,0,0,0,0-3H93a1.46,1.46,0,0,0-.7.18L81.48,84.05h0L71.32,89.58,61.18,84.05h0L50.32,78.13a1.47,1.47,0,0,0-.71-.18H32.43a1.48,1.48,0,1,0,0,3H49.24l5.42,3H32.43a7.4,7.4,0,0,0,0,14.8h77.79a7.4,7.4,0,0,0,0-14.8Z"/></clipPath><clipPath id="clip-path-2"><circle class="cls-2" cx="90.43" cy="109.02" r="1.48"/></clipPath><clipPath id="clip-path-3"><path class="cls-1" d="M110.22,101.63H50.15a1.48,1.48,0,0,0,0,3h58.48a10.35,10.35,0,0,1-10.23,8.87H44.25A10.36,10.36,0,0,1,34,104.59H44.25a1.48,1.48,0,0,0,0-3H32.43A1.48,1.48,0,0,0,31,103.11a13.32,13.32,0,0,0,13.3,13.31H98.4a13.31,13.31,0,0,0,13.29-13.31A1.47,1.47,0,0,0,110.22,101.63Z"/></clipPath><clipPath id="clip-path-4"><circle class="cls-2" cx="46.31" cy="60.42" r="1.48"/></clipPath><clipPath id="clip-path-5"><circle class="cls-2" cx="96.33" cy="60.42" r="1.48"/></clipPath><clipPath id="clip-path-6"><circle class="cls-2" cx="52.22" cy="64.56" r="1.48"/></clipPath><clipPath id="clip-path-7"><path class="cls-1" d="M33.91,68.85A18.25,18.25,0,0,1,52.12,50.6h38.4a18.26,18.26,0,0,1,18.22,18.25V72H33.91Zm38.89-39,8.85,4.09L72.8,38ZM32.43,75h77.79a1.47,1.47,0,0,0,1.47-1.48V68.85A21.21,21.21,0,0,0,90.52,47.64H72.8V41.26l13-6a1.49,1.49,0,0,0,0-2.69L71.94,26.15a1.48,1.48,0,0,0-2.09,1.35V47.64H52.12A21.22,21.22,0,0,0,31,68.85v4.66A1.48,1.48,0,0,0,32.43,75Z"/></clipPath></defs><path class="cls-3" d="M110.22,95.71H32.43a4.44,4.44,0,0,1,0-8.88H60.09l10.53,5.74a1.47,1.47,0,0,0,1.41,0l10.53-5.74h27.66a4.44,4.44,0,0,1,0,8.88Zm0-11.84H88l5.43-3h16.81a1.48,1.48,0,0,0,0-3H93a1.46,1.46,0,0,0-.7.18L81.48,84.05h0L71.32,89.58,61.18,84.05h0L50.32,78.13a1.47,1.47,0,0,0-.71-.18H32.43a1.48,1.48,0,1,0,0,3H49.24l5.42,3H32.43a7.4,7.4,0,0,0,0,14.8h77.79a7.4,7.4,0,0,0,0-14.8Z"/><g class="cls-4"><rect class="cls-2" x="23.58" y="76.49" width="95.49" height="23.65"/></g><circle class="cls-2" cx="90.43" cy="109.02" r="1.48"/><g class="cls-5"><rect class="cls-2" x="87.48" y="106.08" width="5.88" height="5.89"/></g><path class="cls-3" d="M110.22,101.63H50.15a1.48,1.48,0,0,0,0,3h58.48a10.35,10.35,0,0,1-10.23,8.87H44.25A10.36,10.36,0,0,1,34,104.59H44.25a1.48,1.48,0,0,0,0-3H32.43A1.48,1.48,0,0,0,31,103.11a13.32,13.32,0,0,0,13.3,13.31H98.4a13.31,13.31,0,0,0,13.29-13.31A1.47,1.47,0,0,0,110.22,101.63Z"/><g class="cls-6"><rect class="cls-2" x="29.49" y="100.16" width="83.67" height="17.73"/></g><circle class="cls-2" cx="46.31" cy="60.42" r="1.48"/><g class="cls-7"><rect class="cls-2" x="43.37" y="57.48" width="5.88" height="5.89"/></g><circle class="cls-2" cx="96.33" cy="60.42" r="1.48"/><g class="cls-8"><rect class="cls-2" x="93.39" y="57.48" width="5.88" height="5.89"/></g><circle class="cls-2" cx="52.22" cy="64.56" r="1.48"/><g class="cls-9"><rect class="cls-2" x="49.28" y="61.62" width="5.88" height="5.89"/></g><path class="cls-3" d="M33.91,68.85A18.25,18.25,0,0,1,52.12,50.6h38.4a18.26,18.26,0,0,1,18.22,18.25V72H33.91Zm38.89-39,8.85,4.09L72.8,38ZM32.43,75h77.79a1.47,1.47,0,0,0,1.47-1.48V68.85A21.21,21.21,0,0,0,90.52,47.64H72.8V41.26l13-6a1.49,1.49,0,0,0,0-2.69L71.94,26.15a1.48,1.48,0,0,0-2.09,1.35V47.64H52.12A21.22,21.22,0,0,0,31,68.85v4.66A1.48,1.48,0,0,0,32.43,75Z"/><g class="cls-10"><rect class="cls-2" x="29.49" y="24.48" width="83.67" height="51.98"/></g></svg>