<svg id="Capa_1" data-name="Capa 1" xmlns="http://www.w3.org/2000/svg" xmlns:xlink="http://www.w3.org/1999/xlink" viewBox="0 0 150 150"><defs><style>.cls-1,.cls-2,.cls-3{fill:#c88138;}.cls-1{clip-rule:evenodd;}.cls-3{fill-rule:evenodd;}.cls-4{clip-path:url(#clip-path);}.cls-5{clip-path:url(#clip-path-2);}.cls-6{clip-path:url(#clip-path-3);}.cls-7{clip-path:url(#clip-path-4);}.cls-8{clip-path:url(#clip-path-5);}</style><clipPath id="clip-path"><path class="cls-1" d="M141.29,75.55a1.15,1.15,0,0,0-1.54-.53C130.13,79.7,121.94,87,118.4,93.94l0,0c-1.42,2.8-2.76,5.44-5.14,7.31-2.67,2.1-6.43,2.94-11.51,2.58a22.9,22.9,0,0,0-10.09,1.43l-5-33.56a2,2,0,0,0,.76-.53,1.41,1.41,0,0,0,.34-.62,3.3,3.3,0,0,0,0-2.56,4.38,4.38,0,0,0-2-2l-2-13.53a1.15,1.15,0,1,0-2.28.35L83.4,65.52a72.77,72.77,0,0,1-7.35-1.35,38.94,38.94,0,0,1-7.91-2.72l.09-1.69a.41.41,0,0,0,0-.11,15.12,15.12,0,0,0-1.34-5.18,12.6,12.6,0,0,0-1.43-2.39,20.1,20.1,0,0,1-1.62-7.53c2.08,0,3.47-.47,4.23-1.46a2.77,2.77,0,0,0,.52-2.16c.74-3.9-1.32-9-1.55-9.6a4.89,4.89,0,0,0-1.45-2A6.09,6.09,0,0,0,67,27.25a1.15,1.15,0,1,0-2.12-.91,3.21,3.21,0,0,1-1.77,1.83,9.79,9.79,0,0,0-5.07.6c-2.73,1-4.31,2.69-4.7,5.12a17.52,17.52,0,0,0,.7,6.42c.19.84.39,1.71.53,2.53.62,3.62-.43,5.44-.78,5.93a9.83,9.83,0,0,0-4.74,5.69,4.86,4.86,0,0,0-3,.49c-2.14,1-4,3.31-5.62,6.82a35.17,35.17,0,0,0-2.8,9.55c-.51,4,0,7.16,1.59,9.45a9,9,0,0,0,6.88,3.73v.07a8.45,8.45,0,0,0,1.32,5.88,13.88,13.88,0,0,0,3.7,3.86l-6.52,28.51c-.17.56-1,3.59.28,5.61a3,3,0,0,0,.34.43,91.59,91.59,0,0,0-13.79,3.26,133.65,133.65,0,0,0-12.6,4.59,1.15,1.15,0,0,0-.59,1.52,1.14,1.14,0,0,0,1.05.7,1.09,1.09,0,0,0,.46-.1s5.42-2.35,12.38-4.5c9.13-2.82,16.84-4.06,22.29-3.59.46,0,.92.06,1.39.06,5.68,0,12.28-2.92,19.64-8.7a80.29,80.29,0,0,0,10.09-9.44l.1-.13a13.52,13.52,0,0,1,3.72-3.48,19.19,19.19,0,0,1,12.17-2.86c5.67.41,10-.6,13.09-3.06,2.78-2.19,4.3-5.19,5.77-8.09l0,0c3.33-6.57,11.11-13.42,20.31-17.9A1.16,1.16,0,0,0,141.29,75.55ZM83.76,67.9l.29,2c-.37,0-.83,0-1.38,0s-1.36,0-2.18.09A33.69,33.69,0,0,1,67.7,68.84L68,63.93C73.81,66.56,81.2,67.6,83.76,67.9Zm-18.32.17a43.81,43.81,0,0,1-7.25-3.57h0a5.42,5.42,0,0,1-1.95-6.82,1.9,1.9,0,0,1,1.37-.89c1.13-.1,2.68,1,4.36,3a14.11,14.11,0,0,0,3.78,3ZM58.83,31c2-.7,3.61-.78,4.72-.24a2.6,2.6,0,0,1,1.32,1.37.69.69,0,0,0,0,.1c0,.05,2.14,5.16,1.39,8.5a1.17,1.17,0,0,0,0,.64.44.44,0,0,1-.08.34c-.1.13-.72.75-3.48.51a1.13,1.13,0,0,0-.87.29,1.18,1.18,0,0,0-.38.83,28.41,28.41,0,0,0,.56,5.83,12,12,0,0,0-3.59-1.31l-.11,0a8.56,8.56,0,0,0-1.68.07,12.3,12.3,0,0,0,.16-5.42c-.15-.88-.36-1.79-.56-2.66C55.23,35.1,54.81,32.38,58.83,31ZM58.12,50.1a9.07,9.07,0,0,1,5.44,3.28l0,.06a10.67,10.67,0,0,1,1.18,1.94,12.76,12.76,0,0,1,1.15,4.31l0,.48a10.32,10.32,0,0,1-2.17-1.9c-2.26-2.71-4.4-4-6.38-3.78a4.18,4.18,0,0,0-3.13,2.1l0,0A7.75,7.75,0,0,0,57,66.48h0a44.94,44.94,0,0,0,8.29,4l-.44,7.56c-7,3.49-15.89,4.18-16,4.18l-.25,0L50.78,57C52.21,50,57.52,50.07,58.12,50.1Zm-17,29.35C38.58,75.7,40,68.35,42.56,62.73c1.62-3.57,3.24-5,4.31-5.59a3,3,0,0,1,1.62-.42L46.33,82.19A6.82,6.82,0,0,1,41.14,79.45Zm8.32,9.86A6,6,0,0,1,48.39,85a1,1,0,0,0,0-.18l0-.28q.3,0,.6,0a52,52,0,0,0,15.67-3.86l-.3,5A1.17,1.17,0,0,0,65,86.8c.11.06,11.37,6,14.71,7.83a3.49,3.49,0,0,1,1.86,2.6,4.39,4.39,0,0,1,0,1.68L76,114.84c-2.58,6-4.1,7-4.39,7.12H71.4c-.35-.49-.49-2.52-.29-4.32l2.53-18.06a1.14,1.14,0,0,0-1-1.3l-8.26-1.19C54.83,95,51,91.73,49.46,89.31Zm-2.62,34.18,0-.1,6.35-27.77a32.08,32.08,0,0,0,6.63,2.69L51.22,122a.14.14,0,0,0,0,.07c-1.23,4.18-2.13,5.51-2.51,5.92a1.18,1.18,0,0,0-.65-.27,1.44,1.44,0,0,1-1.21-.6C46.19,126.17,46.63,124.13,46.84,123.49Zm7.81,4.94a33.6,33.6,0,0,0-3.39-.1,27,27,0,0,0,2.13-5.54l8.69-23.87c.61.15,1.24.3,1.89.43l.07,0,7.16,1-2.38,16.92v0c-.12,1.07-.4,4.53.82,6.09C64.89,126.52,59.55,128.86,54.65,128.43ZM88,107.18a15.92,15.92,0,0,0-4.23,4,80.39,80.39,0,0,1-6.48,6.36c.27-.57.55-1.18.82-1.83a.11.11,0,0,0,0-.07l5.59-16,0-.08a6.16,6.16,0,0,0-2.93-7C78,91,69.23,86.4,66.75,85.1l.81-13.88a33.22,33.22,0,0,0,9.29,1.3c1.43,0,2.69-.08,3.78-.15.79-.05,1.47-.1,2-.1s1.23,0,1.73-.06l5,34.11C88.93,106.61,88.45,106.9,88,107.18Z"/></clipPath><clipPath id="clip-path-2"><rect class="cls-2" x="18.17" y="25.64" width="123.24" height="113.29"/></clipPath><clipPath id="clip-path-3"><path class="cls-1" d="M48.06,28.88a1.22,1.22,0,0,0,.24-1c0-.26-1.24-6.27-5.63-8.32-2.22-1-4.79-.87-7.65.5a17.76,17.76,0,0,0-1.59-4c-2.11-3.73-5.26-5.44-9.13-4.94l-.11,0a8.93,8.93,0,0,0-5.83,4.94,9,9,0,0,0-8.18-1.48,1.2,1.2,0,0,0-.73,1.52,1.15,1.15,0,0,0,1.47.75c3.86-1.32,7.07,1.95,7.2,2.08a1.12,1.12,0,0,0,1.16.31,1.18,1.18,0,0,0,.82-.9,6.44,6.44,0,0,1,4.55-4.88c2.86-.34,5.12.91,6.73,3.73A16,16,0,0,1,33.07,22a1.16,1.16,0,0,0,.64.9,1.11,1.11,0,0,0,1.09,0c2.73-1.62,5.05-2,6.89-1.14,2.19,1,3.37,3.55,3.92,5.17H10.55a1.2,1.2,0,0,0,0,2.39H47.16a1.16,1.16,0,0,0,.9-.43"/></clipPath><clipPath id="clip-path-4"><rect class="cls-2" x="9.39" y="11.07" width="38.94" height="18.24"/></clipPath><clipPath id="clip-path-5"><path class="cls-1" d="M108.76,23.88a1.27,1.27,0,0,0,.67.2,1.21,1.21,0,0,0,1-.5,4.36,4.36,0,0,1,2.83-1.76c1,0,2,.58,3,1.82a1.2,1.2,0,0,0,1.38.35,1.15,1.15,0,0,0,.73-1.2c-.08-.65-.08-2.67.9-3.38.82-.6,2.29-.19,3.39.26a1.2,1.2,0,0,0,1.55-.61,1.13,1.13,0,0,0-.63-1.51c-2.43-1-4.36-1-5.74,0a4.59,4.59,0,0,0-1.69,2.81,5,5,0,0,0-2.92-.86c-2.79.09-4.63,2.65-4.71,2.76a1.13,1.13,0,0,0,.31,1.6"/></clipPath></defs><path class="cls-3" d="M141.29,75.55a1.15,1.15,0,0,0-1.54-.53C130.13,79.7,121.94,87,118.4,93.94l0,0c-1.42,2.8-2.76,5.44-5.14,7.31-2.67,2.1-6.43,2.94-11.51,2.58a22.9,22.9,0,0,0-10.09,1.43l-5-33.56a2,2,0,0,0,.76-.53,1.41,1.41,0,0,0,.34-.62,3.3,3.3,0,0,0,0-2.56,4.38,4.38,0,0,0-2-2l-2-13.53a1.15,1.15,0,1,0-2.28.35L83.4,65.52a72.77,72.77,0,0,1-7.35-1.35,38.94,38.94,0,0,1-7.91-2.72l.09-1.69a.41.41,0,0,0,0-.11,15.12,15.12,0,0,0-1.34-5.18,12.6,12.6,0,0,0-1.43-2.39,20.1,20.1,0,0,1-1.62-7.53c2.08,0,3.47-.47,4.23-1.46a2.77,2.77,0,0,0,.52-2.16c.74-3.9-1.32-9-1.55-9.6a4.89,4.89,0,0,0-1.45-2A6.09,6.09,0,0,0,67,27.25a1.15,1.15,0,1,0-2.12-.91,3.21,3.21,0,0,1-1.77,1.83,9.79,9.79,0,0,0-5.07.6c-2.73,1-4.31,2.69-4.7,5.12a17.52,17.52,0,0,0,.7,6.42c.19.84.39,1.71.53,2.53.62,3.62-.43,5.44-.78,5.93a9.83,9.83,0,0,0-4.74,5.69,4.86,4.86,0,0,0-3,.49c-2.14,1-4,3.31-5.62,6.82a35.17,35.17,0,0,0-2.8,9.55c-.51,4,0,7.16,1.59,9.45a9,9,0,0,0,6.88,3.73v.07a8.45,8.45,0,0,0,1.32,5.88,13.88,13.88,0,0,0,3.7,3.86l-6.52,28.51c-.17.56-1,3.59.28,5.61a3,3,0,0,0,.34.43,91.59,91.59,0,0,0-13.79,3.26,133.65,133.65,0,0,0-12.6,4.59,1.15,1.15,0,0,0-.59,1.52,1.14,1.14,0,0,0,1.05.7,1.09,1.09,0,0,0,.46-.1s5.42-2.35,12.38-4.5c9.13-2.82,16.84-4.06,22.29-3.59.46,0,.92.06,1.39.06,5.68,0,12.28-2.92,19.64-8.7a80.29,80.29,0,0,0,10.09-9.44l.1-.13a13.52,13.52,0,0,1,3.72-3.48,19.19,19.19,0,0,1,12.17-2.86c5.67.41,10-.6,13.09-3.06,2.78-2.19,4.3-5.19,5.77-8.09l0,0c3.33-6.57,11.11-13.42,20.31-17.9A1.16,1.16,0,0,0,141.29,75.55ZM83.76,67.9l.29,2c-.37,0-.83,0-1.38,0s-1.36,0-2.18.09A33.69,33.69,0,0,1,67.7,68.84L68,63.93C73.81,66.56,81.2,67.6,83.76,67.9Zm-18.32.17a43.81,43.81,0,0,1-7.25-3.57h0a5.42,5.42,0,0,1-1.95-6.82,1.9,1.9,0,0,1,1.37-.89c1.13-.1,2.68,1,4.36,3a14.11,14.11,0,0,0,3.78,3ZM58.83,31c2-.7,3.61-.78,4.72-.24a2.6,2.6,0,0,1,1.32,1.37.69.69,0,0,0,0,.1c0,.05,2.14,5.16,1.39,8.5a1.17,1.17,0,0,0,0,.64.44.44,0,0,1-.08.34c-.1.13-.72.75-3.48.51a1.13,1.13,0,0,0-.87.29,1.18,1.18,0,0,0-.38.83,28.41,28.41,0,0,0,.56,5.83,12,12,0,0,0-3.59-1.31l-.11,0a8.56,8.56,0,0,0-1.68.07,12.3,12.3,0,0,0,.16-5.42c-.15-.88-.36-1.79-.56-2.66C55.23,35.1,54.81,32.38,58.83,31ZM58.12,50.1a9.07,9.07,0,0,1,5.44,3.28l0,.06a10.67,10.67,0,0,1,1.18,1.94,12.76,12.76,0,0,1,1.15,4.31l0,.48a10.32,10.32,0,0,1-2.17-1.9c-2.26-2.71-4.4-4-6.38-3.78a4.18,4.18,0,0,0-3.13,2.1l0,0A7.75,7.75,0,0,0,57,66.48h0a44.94,44.94,0,0,0,8.29,4l-.44,7.56c-7,3.49-15.89,4.18-16,4.18l-.25,0L50.78,57C52.21,50,57.52,50.07,58.12,50.1Zm-17,29.35C38.58,75.7,40,68.35,42.56,62.73c1.62-3.57,3.24-5,4.31-5.59a3,3,0,0,1,1.62-.42L46.33,82.19A6.82,6.82,0,0,1,41.14,79.45Zm8.32,9.86A6,6,0,0,1,48.39,85a1,1,0,0,0,0-.18l0-.28q.3,0,.6,0a52,52,0,0,0,15.67-3.86l-.3,5A1.17,1.17,0,0,0,65,86.8c.11.06,11.37,6,14.71,7.83a3.49,3.49,0,0,1,1.86,2.6,4.39,4.39,0,0,1,0,1.68L76,114.84c-2.58,6-4.1,7-4.39,7.12H71.4c-.35-.49-.49-2.52-.29-4.32l2.53-18.06a1.14,1.14,0,0,0-1-1.3l-8.26-1.19C54.83,95,51,91.73,49.46,89.31Zm-2.62,34.18,0-.1,6.35-27.77a32.08,32.08,0,0,0,6.63,2.69L51.22,122a.14.14,0,0,0,0,.07c-1.23,4.18-2.13,5.51-2.51,5.92a1.18,1.18,0,0,0-.65-.27,1.44,1.44,0,0,1-1.21-.6C46.19,126.17,46.63,124.13,46.84,123.49Zm7.81,4.94a33.6,33.6,0,0,0-3.39-.1,27,27,0,0,0,2.13-5.54l8.69-23.87c.61.15,1.24.3,1.89.43l.07,0,7.16,1-2.38,16.92v0c-.12,1.07-.4,4.53.82,6.09C64.89,126.52,59.55,128.86,54.65,128.43ZM88,107.18a15.92,15.92,0,0,0-4.23,4,80.39,80.39,0,0,1-6.48,6.36c.27-.57.55-1.18.82-1.83a.11.11,0,0,0,0-.07l5.59-16,0-.08a6.16,6.16,0,0,0-2.93-7C78,91,69.23,86.4,66.75,85.1l.81-13.88a33.22,33.22,0,0,0,9.29,1.3c1.43,0,2.69-.08,3.78-.15.79-.05,1.47-.1,2-.1s1.23,0,1.73-.06l5,34.11C88.93,106.61,88.45,106.9,88,107.18Z"/><g class="cls-4"><rect class="cls-2" x="18.17" y="25.64" width="123.24" height="113.29"/><g class="cls-5"><rect class="cls-2" x="16.72" y="24.18" width="126.14" height="116.2"/></g></g><path class="cls-3" d="M48.06,28.88a1.22,1.22,0,0,0,.24-1c0-.26-1.24-6.27-5.63-8.32-2.22-1-4.79-.87-7.65.5a17.76,17.76,0,0,0-1.59-4c-2.11-3.73-5.26-5.44-9.13-4.94l-.11,0a8.93,8.93,0,0,0-5.83,4.94,9,9,0,0,0-8.18-1.48,1.2,1.2,0,0,0-.73,1.52,1.15,1.15,0,0,0,1.47.75c3.86-1.32,7.07,1.95,7.2,2.08a1.12,1.12,0,0,0,1.16.31,1.18,1.18,0,0,0,.82-.9,6.44,6.44,0,0,1,4.55-4.88c2.86-.34,5.12.91,6.73,3.73A16,16,0,0,1,33.07,22a1.16,1.16,0,0,0,.64.9,1.11,1.11,0,0,0,1.09,0c2.73-1.62,5.05-2,6.89-1.14,2.19,1,3.37,3.55,3.92,5.17H10.55a1.2,1.2,0,0,0,0,2.39H47.16a1.16,1.16,0,0,0,.9-.43"/><g class="cls-6"><rect class="cls-2" x="9.39" y="11.07" width="38.94" height="18.24"/><g class="cls-7"><rect class="cls-2" x="7.93" y="9.62" width="41.84" height="21.15"/></g></g><path class="cls-3" d="M108.76,23.88a1.27,1.27,0,0,0,.67.2,1.21,1.21,0,0,0,1-.5,4.36,4.36,0,0,1,2.83-1.76c1,0,2,.58,3,1.82a1.2,1.2,0,0,0,1.38.35,1.15,1.15,0,0,0,.73-1.2c-.08-.65-.08-2.67.9-3.38.82-.6,2.29-.19,3.39.26a1.2,1.2,0,0,0,1.55-.61,1.13,1.13,0,0,0-.63-1.51c-2.43-1-4.36-1-5.74,0a4.59,4.59,0,0,0-1.69,2.81,5,5,0,0,0-2.92-.86c-2.79.09-4.63,2.65-4.71,2.76a1.13,1.13,0,0,0,.31,1.6"/><g class="cls-8"><rect class="cls-2" x="106.63" y="15.1" width="19.22" height="10.54"/></g></svg>