<svg id="Capa_1" data-name="Capa 1" xmlns="http://www.w3.org/2000/svg" viewBox="0 0 150 150"><defs><style>.cls-1{fill:#c78036;}</style></defs><g id="Page-1"><g id="_037---Sheet" data-name="037---Sheet"><path id="Shape" class="cls-1" d="M128.09,77.78l-5.3-25.95a21.43,21.43,0,0,0-20.88-16.9h-52A21.44,21.44,0,0,0,29,51.83L22.11,84a.28.28,0,0,0,0,.13,25.73,25.73,0,0,0,26,30.92h70.54a9.8,9.8,0,0,0,9.75-10.75,9.94,9.94,0,0,0-7.54-8.51,17.73,17.73,0,0,0,7.25-18v0ZM32.47,52.57a17.86,17.86,0,0,1,17.4-14.08h52a17.88,17.88,0,0,1,17.4,14.07L122.45,68a17.71,17.71,0,0,0-11.84-4.54H47.39a25.57,25.57,0,0,0-18.69,8c-.13.13-.23.27-.36.4Zm78.14,42.9H47.39a6.23,6.23,0,0,1-6.2-6.86A6.49,6.49,0,0,1,47.75,83h62.86a1.78,1.78,0,0,0,0-3.56H47.75a10.06,10.06,0,0,0-10.1,8.82A9.81,9.81,0,0,0,47.39,99h70.89a6.46,6.46,0,0,1,6.55,5.61,6.23,6.23,0,0,1-6.2,6.85H48.09A22.6,22.6,0,0,1,25.16,90.36,22.29,22.29,0,0,1,47.39,67h63.22a14.25,14.25,0,1,1,0,28.49Z"/><path id="Shape-2" data-name="Shape" class="cls-1" d="M37.32,55.42a1.55,1.55,0,0,0,.37,0,1.78,1.78,0,0,0,1.74-1.41,10.73,10.73,0,0,1,10.44-8.44H64.31a1.78,1.78,0,0,0,0-3.56H49.87A14.29,14.29,0,0,0,36,53.31a1.76,1.76,0,0,0,.25,1.34A1.74,1.74,0,0,0,37.32,55.42Z"/><circle id="Oval" class="cls-1" cx="71.44" cy="43.83" r="1.78"/></g></g></svg>