<svg id="Capa_1" data-name="Capa 1" xmlns="http://www.w3.org/2000/svg" viewBox="0 0 150 150"><defs><style>.cls-1{fill:#c78036;}</style></defs><path class="cls-1" d="M122.37,29.89H27.63a6.77,6.77,0,0,0-6.76,6.77V99.81a6.77,6.77,0,0,0,6.76,6.77H66v4.86L40.8,115.63a2.25,2.25,0,0,0,.37,4.48l.37,0,26.87-4.48H81.58l26.88,4.48a2.31,2.31,0,0,0,.37,0,2.26,2.26,0,0,0,.37-4.48L84,111.44v-4.86h38.35a6.77,6.77,0,0,0,6.76-6.77V36.66A6.77,6.77,0,0,0,122.37,29.89Zm-42.86,81.2h-9v-4.51h9Zm45.11-11.28a2.26,2.26,0,0,1-2.25,2.26H27.63a2.26,2.26,0,0,1-2.25-2.26V36.66a2.26,2.26,0,0,1,2.25-2.26h94.74a2.26,2.26,0,0,1,2.25,2.26Z"/><path class="cls-1" d="M68.94,57H55.41a2.26,2.26,0,1,0,0,4.51h4.51V77.26a2.26,2.26,0,0,0,4.51,0V61.47h4.51a2.26,2.26,0,0,0,0-4.51Z"/><path class="cls-1" d="M90,57.1a2.24,2.24,0,0,0-2.9,1.32L82.47,70.83,77.82,58.42A2.26,2.26,0,0,0,73.59,60l6.77,18a2.25,2.25,0,0,0,4.22,0l6.77-18A2.26,2.26,0,0,0,90,57.1Z"/></svg>